<svg preserveAspectRatio="none" overflow="visible" style="display: block;" width="40" height="40" viewBox="0 0 40 40" fill="none" xmlns="http://www.w3.org/2000/svg">
<g id="Outline / Video, Audio, Sound / Gallery">
<g id="Vector">
<path fill-rule="evenodd" clip-rule="evenodd" d="M26.6667 11.25C25.5161 11.25 24.5833 12.1827 24.5833 13.3333C24.5833 14.4839 25.5161 15.4167 26.6667 15.4167C27.8173 15.4167 28.75 14.4839 28.75 13.3333C28.75 12.1827 27.8173 11.25 26.6667 11.25ZM22.0833 13.3333C22.0833 10.802 24.1354 8.75 26.6667 8.75C29.198 8.75 31.25 10.802 31.25 13.3333C31.25 15.8646 29.198 17.9167 26.6667 17.9167C24.1354 17.9167 22.0833 15.8646 22.0833 13.3333Z" fill="#C4C4C4"/>
<path fill-rule="evenodd" clip-rule="evenodd" d="M19.9044 2.08333H20.0956C23.943 2.08331 26.958 2.08329 29.3105 2.39958C31.7184 2.72331 33.6184 3.39888 35.1098 4.89023C36.6011 6.38158 37.2767 8.28162 37.6004 10.6895C37.9167 13.042 37.9167 16.0571 37.9167 19.9044V20.0956C37.9167 23.9429 37.9167 26.958 37.6004 29.3105C37.2767 31.7184 36.6011 33.6184 35.1098 35.1098C33.6184 36.6011 31.7184 37.2767 29.3105 37.6004C26.958 37.9167 23.9429 37.9167 20.0956 37.9167H19.9044C16.0571 37.9167 13.042 37.9167 10.6895 37.6004C8.28162 37.2767 6.38158 36.6011 4.89023 35.1098C3.39888 33.6184 2.72331 31.7184 2.39958 29.3105C2.08329 26.958 2.08331 23.943 2.08333 20.0956V19.9044C2.08331 16.057 2.08329 13.042 2.39958 10.6895C2.72331 8.28162 3.39888 6.38158 4.89023 4.89023C6.38158 3.39888 8.28162 2.72331 10.6895 2.39958C13.042 2.08329 16.057 2.08331 19.9044 2.08333ZM6.65799 33.342C5.70857 32.3926 5.16375 31.108 4.87728 28.9774C4.62149 27.0748 4.58827 24.6475 4.58397 21.4002L7.07577 19.2199C8.0993 18.3243 9.64191 18.3757 10.6036 19.3374L17.7531 26.4869C19.328 28.0618 21.8072 28.2766 23.6294 26.9959L24.1264 26.6466C25.5567 25.6414 27.4918 25.7579 28.7912 26.9274L34.1638 31.7627C34.2223 31.8153 34.2843 31.8614 34.3491 31.901C34.0797 32.4692 33.7478 32.9362 33.342 33.342C32.3926 34.2914 31.108 34.8363 28.9774 35.1227C26.8107 35.414 23.9637 35.4167 20 35.4167C16.0363 35.4167 13.1893 35.414 11.0226 35.1227C8.89196 34.8363 7.60742 34.2914 6.65799 33.342ZM11.0226 4.87728C8.89196 5.16375 7.60742 5.70857 6.65799 6.65799C5.70857 7.60742 5.16375 8.89196 4.87728 11.0226C4.63539 12.8218 4.59254 15.0901 4.58496 18.0774L5.42952 17.3385C7.44356 15.5762 10.479 15.6773 12.3714 17.5696L19.5209 24.7192C20.2368 25.435 21.3636 25.5326 22.1919 24.9505L22.6889 24.6012C25.0728 22.9259 28.298 23.12 30.4637 25.0691L35.0869 29.2301C35.0993 29.1472 35.1112 29.063 35.1227 28.9774C35.414 26.8107 35.4167 23.9637 35.4167 20C35.4167 16.0363 35.414 13.1893 35.1227 11.0226C34.8363 8.89196 34.2914 7.60742 33.342 6.65799C32.3926 5.70857 31.108 5.16375 28.9774 4.87728C26.8107 4.58599 23.9637 4.58333 20 4.58333C16.0363 4.58333 13.1893 4.58599 11.0226 4.87728Z" fill="#C4C4C4"/>
</g>
</g>
</svg>
